<?xml version="1.0" encoding="UTF-8"?>
<svg id="Layer_2" data-name="Layer 2" xmlns="http://www.w3.org/2000/svg" xmlns:xlink="http://www.w3.org/1999/xlink" viewBox="0 0 1642.67 372">
  <defs>
    <style>
      .cls-1 {
        fill: none;
      }

      .cls-2 {
        fill: #1c1c1c;
      }

      .cls-3 {
        clip-path: url(#clippath-1);
      }

      .cls-4 {
        clip-path: url(#clippath-3);
      }

      .cls-5 {
        clip-path: url(#clippath-2);
      }

      .cls-6 {
        clip-path: url(#clippath);
      }
    </style>
    <clipPath id="clippath">
      <rect class="cls-1" width="1642.67" height="372"/>
    </clipPath>
    <clipPath id="clippath-1">
      <rect class="cls-1" y="49.33" width="897.33" height="313.33"/>
    </clipPath>
    <clipPath id="clippath-2">
      <rect class="cls-1" x="902.67" y=".21" width="739.89" height="371.52"/>
    </clipPath>
    <clipPath id="clippath-3">
      <rect class="cls-1" x="902.67" width="740" height="372"/>
    </clipPath>
  </defs>
  <g id="Layer_1-2" data-name="Layer 1">
    <g class="cls-6">
      <g>
        <g class="cls-3">
          <g>
            <path class="cls-2" d="M17.36,300.77V115.21h70.33c17.82,0,32.48,4.07,43.98,12.21,11.51,8.13,20.07,19.2,25.69,33.21,5.63,14.02,8.44,30.02,8.44,48.02s-2.85,33.91-8.56,47.75c-5.71,13.83-14.36,24.69-25.96,32.56-11.58,7.88-26.29,11.81-44.1,11.81H17.36ZM35,285.71h50.08c20.59,0,36.21-6.88,46.85-20.63,10.64-13.75,15.96-32.56,15.96-56.44s-5.1-42.9-15.31-57.08c-10.21-14.19-25.61-21.29-46.21-21.29h-51.38v155.44Z"/>
            <path class="cls-2" d="M220.81,303.87c-13.16,0-23.63-3.28-31.42-9.85-7.78-6.57-11.67-15.3-11.67-26.21,0-12.63,4.15-22.05,12.46-28.27,8.3-6.23,20.84-10.74,37.63-13.52,6.4-1.21,12.67-2.32,18.81-3.35,6.15-1.04,11.26-2.98,15.31-5.83,4.07-2.86,6.1-7.58,6.1-14.17,0-8.65-2.91-15.05-8.71-19.21-5.79-4.15-13.27-6.23-22.44-6.23-11.93,0-21.02,2.56-27.25,7.67-6.22,5.1-9.68,12.24-10.38,21.42h-15.56c.51-6.75,2.46-13.28,5.83-19.6,3.38-6.32,8.86-11.51,16.48-15.56,7.61-4.07,17.9-6.1,30.88-6.1,9.17,0,17.3,1.39,24.4,4.17,7.09,2.77,12.67,7.43,16.73,14,4.07,6.57,6.1,15.48,6.1,26.73v65.92c0,3.11.21,6.23.65,9.35.44,3.11,1.83,5.54,4.17,7.27,2.33,1.72,6.35,2.06,12.06,1.02v7.52c-4.32,1.22-8.47,1.83-12.46,1.83-7.43,0-12.66-1.82-15.69-5.46-3.03-3.64-4.54-9.17-4.54-16.6h-.52c-5.03,7.96-11.61,13.8-19.75,17.52-8.13,3.71-17.2,5.56-27.23,5.56ZM226,291.69c9.69,0,17.61-1.81,23.75-5.44,6.14-3.64,10.72-8.05,13.75-13.25,3.03-5.19,4.54-10.21,4.54-15.04v-33.48c-2.25,3.46-6.54,5.97-12.85,7.52-6.31,1.56-13.79,2.94-22.44,4.15-11.6,1.56-20.99,4.41-28.17,8.56-7.18,4.16-10.77,10.81-10.77,19.98s2.81,15.75,8.44,20.25,13.54,6.75,23.75,6.75Z"/>
            <path class="cls-2" d="M316.31,300.77v-133.4h16.08v27h.52c2.94-8.48,7.88-15.41,14.79-20.77,6.92-5.36,14.79-8.04,23.63-8.04,3.46,0,6.74.26,9.85.77v14.27h-.52c-8.13-1.38-15.87-.46-23.23,2.75-7.35,3.2-13.36,8.21-18.04,15.04-4.67,6.83-7,15.09-7,24.77v77.6h-16.08Z"/>
            <path class="cls-2" d="M447.1,303.87c-13.32,0-24.31-1.99-32.96-5.96-8.64-3.98-15.08-9.44-19.33-16.35-4.24-6.92-6.61-14.61-7.13-23.08h15.56c.69,9.86,4.67,17.86,11.94,24,7.26,6.14,17.73,9.21,31.42,9.21,9.68,0,17.8-2.33,24.38-7,6.58-4.68,9.88-10.65,9.88-17.92s-1.91-12.67-5.71-16.21c-3.81-3.55-8.96-6.28-15.46-8.19-6.49-1.9-13.62-3.8-21.4-5.71-8.66-2.25-16.49-4.63-23.5-7.13-7-2.51-12.58-6.02-16.73-10.52-4.16-4.5-6.23-10.64-6.23-18.42,0-10.55,4.32-19.11,12.98-25.69,8.65-6.58,20.67-9.88,36.06-9.88,11.78,0,21.3,1.91,28.56,5.71,7.26,3.81,12.76,8.7,16.48,14.67,3.72,5.97,5.92,12.24,6.6,18.81h-15.56c-1.21-6.92-4.58-13.15-10.13-18.69-5.53-5.54-14.09-8.31-25.69-8.31-5.54,0-10.87.79-15.98,2.35-5.1,1.56-9.2,4.02-12.31,7.4-3.11,3.38-4.67,7.66-4.67,12.83s1.73,9.27,5.19,12.21c3.46,2.93,8.26,5.27,14.4,7,6.15,1.74,13.11,3.56,20.9,5.46,9.34,2.25,17.65,4.81,24.92,7.67,7.26,2.85,12.97,6.78,17.13,11.79,4.15,5.02,6.23,12.02,6.23,21.02,0,11.77-4.46,21.2-13.38,28.29-8.91,7.08-21.06,10.63-36.46,10.63Z"/>
            <path class="cls-2" d="M515.61,300.77V115.21h16.35v75.27h.52c2.59-4.33,5.92-8.4,9.98-12.21,4.07-3.8,9.17-6.96,15.31-9.46,6.15-2.51,13.64-3.77,22.46-3.77,7.61,0,14.53,1.56,20.75,4.67,6.23,3.11,11.21,7.74,14.94,13.9,3.72,6.14,5.58,13.79,5.58,22.96v94.21h-16.1v-86.94c0-6.57-.91-12.53-2.73-17.9-1.81-5.38-5-9.61-9.58-12.73-4.58-3.11-11.2-4.67-19.85-4.67s-15.85,1.77-22.08,5.31c-6.22,3.54-10.98,7.91-14.27,13.1-3.28,5.2-4.92,10.39-4.92,15.58v88.23h-16.35Z"/>
            <path class="cls-2" d="M646.41,300.77v-133.4h16.08v23.1h.52c2.76-4.33,6.18-8.4,10.25-12.21,4.07-3.8,9.21-6.96,15.44-9.46,6.23-2.51,13.85-3.77,22.85-3.77,7.43,0,14.21,1.56,20.35,4.67,6.15,3.11,11.08,7.74,14.79,13.9,3.72,6.14,5.58,13.79,5.58,22.96v94.21h-16.33v-86.94c0-6.57-.91-12.53-2.73-17.9-1.82-5.38-5.02-9.61-9.6-12.73-4.58-3.11-11.12-4.67-19.6-4.67s-16.09,1.77-22.31,5.31c-6.22,3.54-10.98,7.91-14.27,13.1-3.29,5.2-4.94,10.39-4.94,15.58v88.23h-16.08Z"/>
            <path class="cls-2" d="M813.02,303.87c-13.16,0-23.63-3.28-31.42-9.85-7.78-6.57-11.67-15.3-11.67-26.21,0-12.63,4.15-22.05,12.46-28.27,8.3-6.23,20.84-10.74,37.63-13.52,6.4-1.21,12.67-2.32,18.81-3.35,6.15-1.04,11.26-2.98,15.31-5.83,4.07-2.86,6.1-7.58,6.1-14.17,0-8.65-2.91-15.05-8.71-19.21-5.79-4.15-13.27-6.23-22.44-6.23-11.93,0-21.02,2.56-27.25,7.67-6.22,5.1-9.68,12.24-10.38,21.42h-15.56c.51-6.75,2.46-13.28,5.83-19.6,3.38-6.32,8.86-11.51,16.48-15.56,7.61-4.07,17.9-6.1,30.88-6.1,9.17,0,17.3,1.39,24.4,4.17,7.09,2.77,12.67,7.43,16.73,14,4.07,6.57,6.1,15.48,6.1,26.73v65.92c0,3.11.21,6.23.65,9.35.44,3.11,1.83,5.54,4.17,7.27,2.33,1.72,6.35,2.06,12.06,1.02v7.52c-4.32,1.22-8.47,1.83-12.46,1.83-7.43,0-12.66-1.82-15.69-5.46-3.03-3.64-4.54-9.17-4.54-16.6h-.52c-5.03,7.96-11.61,13.8-19.75,17.52-8.13,3.71-17.2,5.56-27.23,5.56ZM818.2,291.69c9.69,0,17.61-1.81,23.75-5.44,6.14-3.64,10.72-8.05,13.75-13.25,3.03-5.19,4.54-10.21,4.54-15.04v-33.48c-2.25,3.46-6.54,5.97-12.85,7.52-6.31,1.56-13.79,2.94-22.44,4.15-11.6,1.56-20.99,4.41-28.17,8.56-7.18,4.16-10.77,10.81-10.77,19.98s2.81,15.75,8.44,20.25,13.54,6.75,23.75,6.75Z"/>
          </g>
        </g>
        <g class="cls-5">
          <g class="cls-4">
            <g>
              <path class="cls-2" d="M982.5,304.1c-14.22,0-26.54-2.79-36.96-8.38-10.41-5.59-18.27-12.92-23.6-21.98-5.32-9.05-7.98-18.48-7.98-28.29v-2.04h43.4v1.79c0,6.08,2.2,11.67,6.6,16.75,4.4,5.07,10.83,7.6,19.29,7.6,7.28,0,13.11-1.86,17.52-5.58,4.4-3.72,6.6-8.63,6.6-14.73,0-5.4-1.95-9.76-5.83-13.06-3.89-3.3-8.64-5.55-14.23-6.73l-20.29-4.06c-11.86-2.71-22.95-7.78-33.27-15.23-10.32-7.44-15.48-19.63-15.48-36.56,0-11,2.67-20.48,8-28.44s12.73-14.05,22.21-18.27c9.47-4.23,20.22-6.35,32.25-6.35,13.71,0,25.55,2.63,35.54,7.88,9.98,5.25,17.51,12.06,22.58,20.44,5.08,8.38,7.63,17.14,7.63,26.27v1.27h-43.42v-.75c0-5.42-1.91-10.45-5.71-15.1-3.81-4.67-9.86-7-18.17-7-6.43,0-11.55,1.78-15.35,5.33-3.81,3.56-5.71,8.22-5.71,13.98s2.11,9.99,6.33,13.21c4.23,3.21,9.32,5.41,15.25,6.58l20.56,4.56c13.38,2.89,24.8,8.31,34.27,16.27,9.47,7.95,14.21,19.54,14.21,34.77,0,11.17-2.88,20.99-8.63,29.46-5.75,8.46-13.66,14.97-23.73,19.54-10.07,4.57-21.37,6.85-33.9,6.85Z"/>
              <path class="cls-2" d="M1104.62,198.23v53.83c0,5.92.29,10.27.88,13.06.59,2.79,2.29,5.04,5.08,6.73,2.79,1.7,7.32,2.54,13.58,2.54,3.22,0,6.52-.34,9.9-1.02v27.42c-1.7.35-5.08.73-10.17,1.15-5.07.43-10.14.65-15.21.65-13.21,0-22.99-1.94-29.33-5.83-6.35-3.9-10.29-8.65-11.81-14.23-1.52-5.58-2.27-12.86-2.27-21.83v-62.46h-21.58v-30.71h21.58v-43.42h39.35v43.42h29.44v30.71h-29.44Z"/>
              <path class="cls-2" d="M1262.51,301.81h-39.85v-20.06h-1.77c-2.88,6.27-7.45,11.6-13.71,16-6.27,4.4-13.89,6.6-22.85,6.6-17.43,0-29.36-5.58-35.79-16.75-6.43-11.18-9.65-23.63-9.65-37.33v-82.75h39.35v76.15c0,8.47,1.77,15.29,5.31,20.46,3.55,5.16,9.05,7.73,16.5,7.73s13.51-2.67,17.15-8c3.64-5.33,5.46-12.06,5.46-20.19v-76.15h39.85v134.29Z"/>
              <path class="cls-2" d="M1315.83,304.1c-16.58,0-29.41-6.3-38.46-18.92-9.06-12.61-13.58-29.49-13.58-50.65s4.53-38.51,13.58-51.02c9.05-12.53,21.96-18.79,38.71-18.79,11.33,0,20.09,2.5,26.27,7.5,6.18,4.99,10.46,10.02,12.83,15.08h2.02v-76.17h39.85v190.67h-39.85v-21.58h-2.02c-2.89,5.77-7.39,11.19-13.48,16.27-6.08,5.07-14.71,7.6-25.88,7.6ZM1330.56,272.87c8.96,0,15.68-3.8,20.17-11.42,4.48-7.63,6.73-16.59,6.73-26.92s-2.2-18.95-6.6-26.4c-4.39-7.46-11.16-11.19-20.29-11.19s-15.87,3.68-20.19,11.04c-4.32,7.36-6.48,16.21-6.48,26.54s2.16,19.29,6.48,26.92c4.32,7.61,11.05,11.42,20.19,11.42Z"/>
              <path class="cls-2" d="M1407.47,167.52h39.35v134.29h-39.35v-134.29ZM1427.02,145.17c-6.1,0-11.18-2.07-15.25-6.21-4.06-4.15-6.08-9.19-6.08-15.1s2.03-11.21,6.08-15.35c4.07-4.15,9.15-6.23,15.25-6.23s11.21,2.08,15.35,6.23c4.15,4.14,6.23,9.26,6.23,15.35s-2.08,10.95-6.23,15.1-9.26,6.21-15.35,6.21Z"/>
              <path class="cls-2" d="M1518.41,304.1c-14.21,0-26.18-3.13-35.92-9.4-9.74-6.26-16.97-14.64-21.71-25.13-4.74-10.5-7.1-22.18-7.1-35.04s2.36-24.32,7.1-34.9c4.73-10.58,11.97-19.05,21.71-25.4,9.73-6.34,21.71-9.52,35.92-9.52s26.19,3.14,35.92,9.4c9.73,6.25,16.97,14.67,21.71,25.25,4.75,10.58,7.13,22.22,7.13,34.92s-2.38,24.31-7.13,34.9c-4.74,10.58-11.97,19.05-21.71,25.4-9.72,6.35-21.7,9.52-35.92,9.52ZM1518.41,272.35c8.8,0,15.32-3.64,19.54-10.92,4.23-7.28,6.35-16.42,6.35-27.42s-2.12-20.01-6.35-27.02c-4.22-7.03-10.74-10.54-19.54-10.54s-15.31,3.56-19.54,10.67c-4.24,7.1-6.35,16.06-6.35,26.9s2.16,20.14,6.48,27.42c4.32,7.28,10.79,10.92,19.42,10.92Z"/>
              <path class="cls-2" d="M1614.88,304.1c-6.27,0-11.43-2.12-15.5-6.35-4.06-4.23-6.08-9.4-6.08-15.48s2.03-11.21,6.08-15.35c4.07-4.15,9.23-6.23,15.5-6.23s11.46,2.08,15.6,6.23c4.15,4.14,6.23,9.26,6.23,15.35s-2.12,11.24-6.35,15.48c-4.22,4.23-9.39,6.35-15.48,6.35Z"/>
            </g>
          </g>
        </g>
      </g>
    </g>
  </g>
</svg>